<?xml version="1.0" encoding="UTF-8" standalone="no"?>
<!-- Created with Inkscape (http://www.inkscape.org/) -->

<svg
   width="340.45593mm"
   height="92.874268mm"
   viewBox="0 0 340.45594 92.874267"
   version="1.1"
   id="svg1785"
   xml:space="preserve"
   inkscape:version="1.2.2 (b0a8486541, 2022-12-01)"
   sodipodi:docname="banner.svg"
   inkscape:export-filename="banner.png"
   inkscape:export-xdpi="96"
   inkscape:export-ydpi="96"
   xmlns:inkscape="http://www.inkscape.org/namespaces/inkscape"
   xmlns:sodipodi="http://sodipodi.sourceforge.net/DTD/sodipodi-0.dtd"
   xmlns="http://www.w3.org/2000/svg"
   xmlns:svg="http://www.w3.org/2000/svg"><sodipodi:namedview
     id="namedview1787"
     pagecolor="#ffffff"
     bordercolor="#666666"
     borderopacity="1.0"
     inkscape:showpageshadow="2"
     inkscape:pageopacity="0.0"
     inkscape:pagecheckerboard="0"
     inkscape:deskcolor="#d1d1d1"
     inkscape:document-units="mm"
     showgrid="false"
     inkscape:zoom="0.74742566"
     inkscape:cx="659.59737"
     inkscape:cy="80.944505"
     inkscape:window-width="1920"
     inkscape:window-height="1020"
     inkscape:window-x="0"
     inkscape:window-y="700"
     inkscape:window-maximized="1"
     inkscape:current-layer="layer1"
     inkscape:pageshadow="0"
     fit-margin-top="0"
     fit-margin-left="0"
     fit-margin-right="0"
     fit-margin-bottom="0" /><defs
     id="defs1782"><inkscape:path-effect
       effect="bspline"
       id="path-effect924"
       is_visible="true"
       lpeversion="1"
       weight="33.333333"
       steps="2"
       helper_size="0"
       apply_no_weight="true"
       apply_with_weight="true"
       only_selected="false" /><inkscape:path-effect
       effect="bspline"
       id="path-effect366"
       is_visible="true"
       lpeversion="1"
       weight="33.333333"
       steps="2"
       helper_size="0"
       apply_no_weight="true"
       apply_with_weight="true"
       only_selected="false" /></defs><g
     inkscape:label="Layer 1"
     inkscape:groupmode="layer"
     id="layer1"
     transform="translate(-40.694057,-27.651056)"><rect
       style="fill:#ffffff;fill-opacity:1;stroke:none;stroke-width:2.16336;stroke-linejoin:bevel;stroke-dasharray:8.6534, 4.32671"
       id="rect307"
       width="340.45593"
       height="92.874268"
       x="40.694057"
       y="27.651056"
       inkscape:export-filename="banner.png"
       inkscape:export-xdpi="96"
       inkscape:export-ydpi="96" /><ellipse
       style="fill:#000000;stroke-width:0.428203;stroke-linejoin:round;stroke-dasharray:1.71282, 1.71282"
       id="path2334"
       cx="99.284508"
       cy="75.423599"
       rx="22.451008"
       ry="21.670519"
       inkscape:export-filename="banner.png"
       inkscape:export-xdpi="96"
       inkscape:export-ydpi="96" /><path
       style="fill:none;stroke:#000000;stroke-width:4;stroke-linecap:butt;stroke-linejoin:miter;stroke-dasharray:none;stroke-opacity:1"
       d="m 117.3574,67.588039 c 0.40629,-0.542245 18.47178,-13.187108 18.47178,-13.187108 l 13.12666,10.502326"
       id="path2705" /><path
       style="fill:none;stroke:#000000;stroke-width:4;stroke-linecap:butt;stroke-linejoin:miter;stroke-dasharray:none;stroke-opacity:1"
       d="m 118.42504,73.604389 10.666,-2.344624 13.63763,12.875244"
       id="path2707" /><path
       style="fill:none;stroke:#000000;stroke-width:4;stroke-linecap:butt;stroke-linejoin:miter;stroke-dasharray:none;stroke-opacity:1"
       d="m 116.66878,83.764722 10.83549,2.019964 5.008,14.248604"
       id="path2709" /><path
       style="fill:none;stroke:#000000;stroke-width:4;stroke-linecap:butt;stroke-linejoin:miter;stroke-dasharray:none;stroke-opacity:1"
       d="m 109.10979,91.972179 11.384,3.704685 2.86285,20.232086"
       id="path2711" /><path
       style="fill:none;stroke:#000000;stroke-width:4;stroke-linecap:butt;stroke-linejoin:miter;stroke-dasharray:none;stroke-opacity:1"
       d="M 78.538188,77.478905 74.539098,74.953981 54.396486,91.292409"
       id="path2713" /><path
       style="fill:none;stroke:#000000;stroke-width:4;stroke-linecap:butt;stroke-linejoin:miter;stroke-dasharray:none;stroke-opacity:1"
       d="M 79.905975,68.009576 C 79.287769,67.774475 70.09499,64.301467 70.09499,64.301467 l -19.121355,5.227092"
       id="path2715" /><path
       style="fill:none;stroke:#000000;stroke-width:4;stroke-linecap:butt;stroke-linejoin:miter;stroke-dasharray:none;stroke-opacity:1"
       d="M 82.700581,63.01624 79.829447,51.350163 58.558001,50.821552"
       id="path2717" /><path
       style="fill:none;stroke:#000000;stroke-width:4;stroke-linecap:butt;stroke-linejoin:miter;stroke-dasharray:none;stroke-opacity:1"
       d="M 92.487984,55.523105 85.800416,37.248869 61.820694,37.611457"
       id="path2719" /><path
       style="fill:none;stroke:#000000;stroke-width:2;stroke-linejoin:bevel;stroke-dasharray:8,4.6;stroke-dashoffset:0;stroke-opacity:1"
       d="m 213.72998,33.044414 c -11.00224,-0.408104 -13.8383,0.478641 -19.54126,2.932135 -5.97547,6.132975 -4.32038,13.201232 0.17903,15.952459 4.45745,2.725568 9.74375,1.192435 17.64519,8.094195 6.92326,6.047338 7.30288,18.182958 2.54741,23.295081 -4.08521,4.391595 -7.85004,6.95057 -20.99383,3.607197 -7.89405,-2.008002 -11.25296,-10.454898 -11.25296,-10.454898"
       id="path1095"
       sodipodi:nodetypes="ccssssc" /><path
       style="fill:none;stroke:#000000;stroke-width:2;stroke-linejoin:bevel;stroke-dasharray:8, 4;stroke-dashoffset:0;stroke-opacity:1"
       d="m 225.9724,111.86711 c 0,0 1.5266,-38.854873 1.5266,-43.692348 2.01748,-1.039037 10.41593,-1.74079 12.1859,0.644497 1.76996,2.385287 4.75218,7.133097 1.46808,11.923332 -2.48774,3.628658 -10.66855,0.524648 -10.66855,0.524648"
       id="path1097"
       sodipodi:nodetypes="ccssc" /><path
       style="fill:none;stroke:#000000;stroke-width:2;stroke-linejoin:bevel;stroke-dasharray:8, 4;stroke-dashoffset:0;stroke-opacity:1"
       d="m 251.21327,70.556633 c -0.73705,3.726393 -0.27972,12.237335 5.21311,12.567829 l 8.71964,0.524646"
       id="path1099"
       sodipodi:nodetypes="csc" /><g
       id="g1028"
       transform="translate(-2.5596351,1.838866)"><path
         style="fill:none;stroke:#000000;stroke-width:2;stroke-linejoin:bevel;stroke-dasharray:8,4.6;stroke-dashoffset:0;stroke-opacity:1"
         d="m 304.14922,67.924954 c -0.72708,1.998658 -1.58278,3.849126 -1.55714,6.715029 0.16201,2.188599 -0.79872,4.259401 4.87557,5.680086 2.59667,0.707235 4.66816,0.504723 6.91094,0.598942 l 2.42057,-13.408879"
         id="path1115"
         sodipodi:nodetypes="ccccc" /><path
         style="fill:none;stroke:#000000;stroke-width:2;stroke-linejoin:bevel;stroke-dasharray:8, 4;stroke-dashoffset:0;stroke-opacity:1"
         d="m 314.37859,80.919011 -1.42013,10.936444 -2.51112,10.138565 c -2.22293,3.38031 -5.10783,3.75552 -8.0129,4.03912 -6.27706,0.52286 -9.82702,-0.89181 -11.96834,-3.30728 -0.59468,-3.895729 0.93728,-6.266333 2.8067,-6.858262 2.75605,-0.387101 4.18046,0.419595 5.98677,0.883923"
         id="path1117"
         sodipodi:nodetypes="ccccccc" /></g><path
       style="fill:none;stroke:#000000;stroke-width:2;stroke-linejoin:bevel;stroke-dasharray:8, 4;stroke-dashoffset:0;stroke-opacity:1"
       d="m 344.84625,72.398968 c 0,2.912025 0.92785,12.021256 1.07374,13.221837 0.14587,1.200584 0.43211,12.450236 0.43211,12.450236 -0.31148,5.404079 -3.36901,6.134229 -5.83743,7.867059 -6.16798,-0.83938 -5.91439,-4.7392 -6.33523,-7.709419 -0.0502,-2.351 0.89147,-3.906641 2.04306,-5.29399"
       id="path1121"
       sodipodi:nodetypes="cscccc" /><path
       style="fill:none;stroke:#000000;stroke-width:2;stroke-linejoin:bevel;stroke-dasharray:8, 4;stroke-dashoffset:0;stroke-opacity:1"
       d="m 254.79373,56.957378 -3.94854,5.381565"
       id="path1125" /><path
       style="fill:none;stroke:#000000;stroke-width:2;stroke-linejoin:bevel;stroke-dasharray:8, 4;stroke-dashoffset:0;stroke-opacity:1"
       d="m 353.88758,81.342866 c 0,0 5.48513,-6.566919 7.56624,-9.805898 1.62021,-2.521647 2.6337,-4.28519 3.73137,-6.186412 1.05926,-1.834688 2.53123,-7.073864 2.77216,-11.213091 0.29895,-5.135996 -0.48576,-13.320485 -1.42074,-13.071537 -0.71238,-5.554811 -10.37079,-2.746591 -9.96331,2.836436 0.0343,0.469541 -0.59631,3.048051 -0.82048,6.914714 -0.2599,4.482786 -0.002,12.22839 0.56983,15.469572 0.70644,4.006169 2.37123,10.172125 2.54572,8.76124 0.90601,4.274652 3.76338,5.530808 7.78456,6.411852 2.0587,0.413549 3.37927,0.214854 4.74486,0.0535"
       id="path1127"
       sodipodi:nodetypes="cssscsssccc" /><path
       style="fill:none;stroke:#000000;stroke-width:2;stroke-linejoin:bevel;stroke-dasharray:8, 4;stroke-dashoffset:0;stroke-opacity:1"
       d="m 329.66125,79.099008 -0.0394,3.518901"
       id="path1125-3"
       sodipodi:nodetypes="cc" /><path
       style="fill:none;stroke:#000000;stroke-width:2;stroke-linejoin:bevel;stroke-dasharray:8,4;stroke-dashoffset:0;stroke-opacity:1"
       d="m 180.84746,73.012238 c -1.6574,-4.36481 -5.80605,-12.544384 -7.45907,-18.553888 -2.60655,-5.636181 -4.89284,-11.24145 -8.86663,-15.631821 -4.16608,-3.598907 -10.42714,-5.332123 -20.42011,-5.070535 -8.52707,-0.607762 -16.79313,1.058578 -22.36613,5.96288 -7.18477,3.891156 -11.28292,10.386243 -16.73211,15.741562"
       id="path1156"
       sodipodi:nodetypes="cccccc" /><g
       id="g1024"
       transform="translate(-3.9002352,1.1407904)"><path
         style="fill:none;stroke:#000000;stroke-width:2;stroke-linecap:butt;stroke-linejoin:miter;stroke-dasharray:8, 4;stroke-dashoffset:0;stroke-opacity:1"
         d="m 272.46135,32.382881 c 0,16.598469 0,33.196674 0,49.794613"
         id="path364"
         inkscape:path-effect="#path-effect366"
         inkscape:original-d="m 272.46135,32.382881 c 2.6e-4,16.598469 2.6e-4,33.196674 0,49.794613" /><path
         style="fill:none;stroke:#000000;stroke-width:2;stroke-linecap:butt;stroke-linejoin:miter;stroke-dasharray:8, 4;stroke-dashoffset:0;stroke-opacity:1"
         d="m 272.46135,32.382881 c 6.81576,2.935974 13.63147,5.87192 18.03874,10.770075 4.40727,4.898156 6.40573,11.75728 6.40262,18.269185 -0.003,6.511904 -2.00772,12.675317 -6.4148,16.07652 -4.40708,3.401202 -11.21663,4.04 -18.02656,4.678833"
         id="path922"
         inkscape:path-effect="#path-effect924"
         inkscape:original-d="m 272.46135,32.382881 c 6.81571,2.936101 13.63141,5.872049 20.4472,8.80788 1.99899,6.8603 3.99744,13.719426 5.99589,20.579157 -2.00452,6.164231 -4.00913,12.327643 -6.01412,18.491154 -6.80946,0.639078 -13.61901,1.277876 -20.42897,1.916422"
         sodipodi:nodetypes="ccccc" /></g><path
       style="fill:none;stroke:#000000;stroke-width:2;stroke-linejoin:bevel;stroke-dasharray:8, 4;stroke-dashoffset:0;stroke-opacity:1"
       d="m 346.54549,56.957378 -3.94854,5.381565"
       id="path1125-36" /></g></svg>
